<?xml version="1.0" standalone="no"?>
<!DOCTYPE svg PUBLIC "-//W3C//DTD SVG 1.1//EN" "http://www.w3.org/Graphics/SVG/1.1/DTD/svg11.dtd" >
<svg xmlns="http://www.w3.org/2000/svg">
<metadata></metadata>
<defs>
<font id="space_bd_btbold" horiz-adv-x="1024" >
<font-face units-per-em="2048" ascent="1556" descent="-492" />
<missing-glyph horiz-adv-x="752" />
<glyph horiz-adv-x="0" />
<glyph unicode="&#xd;" horiz-adv-x="752" />
<glyph unicode=" "  horiz-adv-x="752" />
<glyph unicode="&#x09;" horiz-adv-x="752" />
<glyph unicode="&#xa0;" horiz-adv-x="752" />
<glyph unicode="!" horiz-adv-x="702" d="M176 115v123q0 56 28 84t85 28h123q57 0 85.5 -28t28.5 -84v-123q0 -57 -29 -86t-85 -29h-123q-57 0 -85 28.5t-28 86.5zM199 455v966h303v-966h-303z" />
<glyph unicode="&#x22;" horiz-adv-x="678" d="M80 879v559h192v-559h-192zM406 879v559h192v-559h-192z" />
<glyph unicode="#" horiz-adv-x="1575" d="M45 406l76 200h282l86 242h-299l74 201h297l148 415h221l-146 -415h242l148 415h221l-148 -415h283l-74 -201h-280l-84 -242h290l-71 -200h-291l-148 -416h-221l148 416h-244l-149 -416h-220l146 416h-287zM621 604h251l86 244h-249z" />
<glyph unicode="$" horiz-adv-x="1346" d="M80 995q0 194 120.5 308t329.5 118v205h285v-205h359v-297h-637q-76 0 -115 -33t-39 -96q0 -62 39 -94.5t115 -32.5h247q229 0 357.5 -115t128.5 -319q0 -197 -119.5 -311t-334.5 -123l-1 -227h-285v227h-436v299h697q87 0 131.5 34t44.5 101q0 68 -44.5 101.5 t-131.5 33.5h-248q-215 0 -339 114.5t-124 311.5z" />
<glyph unicode="%" horiz-adv-x="2128" d="M94 811v365q0 127 77.5 200.5t211.5 73.5h219q135 0 211 -72.5t76 -201.5v-365q0 -130 -76 -203t-211 -73h-219q-133 0 -211 74.5t-78 201.5zM332 856q0 -44 21.5 -65t68.5 -21h139q45 0 68.5 22t23.5 64v274q0 44 -23 65.5t-69 21.5h-139q-47 0 -68.5 -21t-21.5 -66 v-274zM616 0l668 1421h227l-667 -1421h-228zM1239 248v362q0 128 77.5 202.5t211.5 74.5h219q135 0 211 -73.5t76 -203.5v-362q0 -130 -76 -203.5t-211 -73.5h-219q-133 0 -211 75t-78 202zM1477 293q0 -45 22 -66.5t68 -21.5h139q44 0 67 22.5t23 65.5v272q0 44 -22.5 66 t-67.5 22h-139q-46 0 -68 -21.5t-22 -66.5v-272z" />
<glyph unicode="&#x26;" horiz-adv-x="1479" d="M141 291v164q0 126 74 194.5t219 77.5q-132 2 -204 65t-72 177v139q0 157 107.5 235t322.5 78h526v-297h-469q-96 0 -133 -30t-37 -107t37 -107t133 -30h53v-266h-63q-99 0 -136.5 -34.5t-37.5 -121.5q0 -88 38 -123t136 -35h196q93 0 134 33t41 107v174h-166v266h626 v-266h-157v-293q0 -161 -107 -240.5t-323 -79.5h-306q-217 0 -324.5 79.5t-107.5 240.5z" />
<glyph unicode="'" horiz-adv-x="352" d="M80 879v559h192v-559h-192z" />
<glyph unicode="(" horiz-adv-x="735" d="M141 344v436q0 340 138 505t423 165v-266q-157 0 -225.5 -80t-68.5 -264v-557q0 -186 68 -265t226 -79v-267q-284 0 -422.5 165.5t-138.5 506.5z" />
<glyph unicode=")" horiz-adv-x="735" d="M33 -61q158 0 226.5 79t68.5 265v557q0 184 -69 264t-226 80v266q284 0 421.5 -164.5t137.5 -505.5v-436q0 -342 -137.5 -507t-421.5 -165v267z" />
<glyph unicode="*" horiz-adv-x="1204" d="M-133 1767l665 -561l70 471l72 -481l229 166l-155 -248l415 -63l-415 -62l155 -246l-229 166l-72 -483l-74 483l-225 -166l154 246l-416 62l395 61z" />
<glyph unicode="+" horiz-adv-x="1706" d="M254 512v199h498v510h202v-510h498v-199h-498v-512h-202v512h-498z" />
<glyph unicode="," horiz-adv-x="702" d="M162 115v151q0 57 28 85t84 28h152q57 0 86 -28t29 -85v-160q0 -176 -90.5 -281t-262.5 -128v139q82 11 127 51.5t56 112.5h-97q-56 0 -84 28.5t-28 86.5z" />
<glyph unicode="-" horiz-adv-x="758" d="M104 383v262h549v-262h-549z" />
<glyph unicode="." horiz-adv-x="702" d="M162 115v151q0 57 28 85t84 28h152q57 0 86 -28t29 -85v-151q0 -57 -29 -86t-86 -29h-152q-56 0 -84 28.5t-28 86.5z" />
<glyph unicode="/" horiz-adv-x="958" d="M-39 -190l778 1611h238l-778 -1611h-238z" />
<glyph unicode="0" horiz-adv-x="1503" d="M104 418v588q0 208 119 326t328 118h401q209 0 328 -118t119 -326v-588q0 -209 -119 -328t-328 -119h-401q-209 0 -328 119t-119 328zM408 440q0 -84 42.5 -127t127.5 -43h346q85 0 128.5 43t43.5 127v541q0 84 -43.5 127t-128.5 43h-346q-85 0 -127.5 -43t-42.5 -127 v-541z" />
<glyph unicode="1" horiz-adv-x="819" d="M51 985v225l332 211h219v-1421h-305v985h-246z" />
<glyph unicode="2" horiz-adv-x="1323" d="M76 0v428q0 208 127.5 322t361.5 114h219q77 0 115.5 32.5t38.5 96.5q0 65 -38.5 98t-115.5 33h-645v297h643q217 0 338 -113t121 -315q0 -201 -121 -314.5t-338 -113.5h-219q-96 0 -140 -39t-44 -125v-102h883v-299h-1186z" />
<glyph unicode="3" horiz-adv-x="1241" d="M80 0v299h579q95 0 135 33.5t40 113.5t-39.5 113t-135.5 33h-342v266h332q94 0 132 30t38 103t-38 103t-132 30h-555v297h598q212 0 321 -77t109 -226v-155q0 -101 -75.5 -162.5t-202.5 -63.5q141 -7 218 -76t77 -188v-168q0 -149 -110.5 -227t-321.5 -78h-627z" />
<glyph unicode="4" horiz-adv-x="1313" d="M20 336v299l773 786h303v-786h174v-299h-174v-336h-303v336h-773zM365 635h428v418z" />
<glyph unicode="5" horiz-adv-x="1270" d="M61 0v299h676q90 0 131 34.5t41 108.5q0 75 -41.5 110.5t-130.5 35.5h-628v833h1042v-297h-739v-237h313q247 0 368 -110t121 -335q0 -224 -121 -333t-368 -109h-664z" />
<glyph unicode="6" horiz-adv-x="1384" d="M104 311v772q0 170 102.5 254t307.5 84h688v-297h-645q-74 0 -111.5 -28.5t-37.5 -83.5v-135q32 21 67 32t74 11h321q206 0 308 -84.5t102 -253.5v-271q0 -170 -102.5 -255t-307.5 -85h-356q-204 0 -307 85t-103 255zM408 383q0 -55 37.5 -84t111.5 -29h270q74 0 112 29 t38 84v127q0 55 -37.5 83t-112.5 28h-270q-74 0 -111.5 -28t-37.5 -83v-127z" />
<glyph unicode="7" horiz-adv-x="1190" d="M66 1124v297h1056v-297l-628 -1124h-347l635 1124h-716z" />
<glyph unicode="8" horiz-adv-x="1384" d="M94 276v189q0 126 74 194.5t219 77.5q-132 2 -204 64.5t-72 175.5v168q0 149 109.5 227t320.5 78h303q211 0 320.5 -78t109.5 -227v-168q0 -113 -72 -175.5t-204 -64.5q147 -10 219.5 -77.5t72.5 -194.5v-189q0 -149 -110.5 -227t-321.5 -78h-334q-211 0 -320.5 78 t-109.5 227zM397 432q0 -91 38.5 -126.5t137.5 -35.5h238q99 0 136.5 35.5t37.5 126.5q0 95 -39 132.5t-135 37.5h-238q-96 0 -136 -38t-40 -132zM410 1006q0 -83 35.5 -113.5t134.5 -30.5h225q99 0 134.5 30.5t35.5 113.5t-36 114t-134 31h-225q-98 0 -134 -31t-36 -114z " />
<glyph unicode="9" horiz-adv-x="1384" d="M104 870v242q0 170 102.5 254t307.5 84h356q206 0 308 -84t102 -254v-772q0 -170 -102.5 -255t-307.5 -85h-710v299h667q75 0 112.5 28t37.5 83v165q-35 -23 -69.5 -34t-71.5 -11h-322q-204 0 -307 85t-103 255zM408 942q0 -55 37.5 -84t111.5 -29h270q74 0 112 29t38 84 v98q0 55 -37.5 83t-112.5 28h-270q-74 0 -111.5 -28t-37.5 -83v-98z" />
<glyph unicode=":" horiz-adv-x="702" d="M162 115v151q0 57 28 85t84 28h152q57 0 86 -28t29 -85v-151q0 -57 -29 -86t-86 -29h-152q-56 0 -84 28.5t-28 86.5zM162 711v151q0 58 28 86.5t84 28.5h152q57 0 86 -29t29 -86v-151q0 -57 -29 -85t-86 -28h-152q-56 0 -84 28t-28 85z" />
<glyph unicode=";" horiz-adv-x="702" d="M162 115v151q0 57 28 85t84 28h152q57 0 86 -28t29 -85v-160q0 -176 -90.5 -281t-262.5 -128v139q82 11 127 51.5t56 112.5h-97q-56 0 -84 28.5t-28 86.5zM162 692v152q0 57 28 85.5t84 28.5h152q57 0 86 -28.5t29 -85.5v-152q0 -56 -29 -84t-86 -28h-152q-56 0 -84 27.5 t-28 84.5z" />
<glyph unicode="&#x3c;" horiz-adv-x="1706" d="M264 512v199l1178 483v-219l-893 -365l893 -364v-219z" />
<glyph unicode="=" horiz-adv-x="1706" d="M254 297v199h1198v-199h-1198zM254 727v199h1198v-199h-1198z" />
<glyph unicode="&#x3e;" horiz-adv-x="1706" d="M264 27v219l895 364l-895 365v219l1178 -483v-199z" />
<glyph unicode="?" horiz-adv-x="1290" d="M127 1124v297h580q219 0 350 -112.5t131 -300.5q0 -180 -111 -283t-334 -129q-104 -13 -136 -43t-34 -98h-303q-2 16 -2 41q0 38 5.5 75.5t15.5 67.5q29 89 79.5 137t149.5 80q52 17 148.5 23.5t130.5 19.5q45 17 66.5 43.5t21.5 65.5q0 54 -41 85t-113 31h-604zM256 115 v123q0 56 28.5 84t86.5 28h123q56 0 84 -28t28 -84v-123q0 -58 -28 -86.5t-84 -28.5h-123q-57 0 -86 29t-29 86z" />
<glyph unicode="@" horiz-adv-x="2048" d="M90 520q0 167 52.5 318.5t154.5 275.5q148 181 356 274t463 93q169 0 317.5 -45.5t258.5 -128.5q135 -105 201.5 -239.5t66.5 -303.5q0 -165 -65.5 -304.5t-188.5 -238.5q-70 -56 -152.5 -85.5t-171.5 -29.5q-106 0 -159.5 42t-55.5 124q-55 -84 -127 -123.5t-170 -39.5 q-158 0 -240.5 86t-82.5 254q0 239 139.5 401t343.5 162q80 0 139 -33t97 -98l53 98h178l-147 -598q-3 -11 -5 -22.5t-2 -18.5q0 -35 24 -52.5t71 -17.5q39 0 81.5 20t79.5 56q86 80 130.5 187t44.5 235q0 240 -185.5 394.5t-478.5 154.5q-141 0 -262.5 -34t-220.5 -101 q-170 -114 -261.5 -285t-91.5 -375q0 -307 207 -490.5t553 -183.5q162 0 316.5 49t287.5 142l82 -117q-153 -115 -324.5 -173t-357.5 -58q-192 0 -353 48.5t-286 143.5q-155 121 -232 279t-77 358zM760 444q0 -92 40.5 -140t117.5 -48q83 0 151.5 63t93.5 164l54 217 q-13 81 -57.5 123.5t-117.5 42.5q-114 0 -198 -124t-84 -298z" />
<glyph unicode="A" horiz-adv-x="1305" d="M-80 0l391 1188q46 137 126.5 199.5t213.5 62.5t217.5 -65.5t122.5 -196.5l393 -1188h-321l-356 1101q-8 26 -21.5 38t-34.5 12q-20 0 -32.5 -11.5t-20.5 -37.5l-356 -1102h-322z" />
<glyph unicode="B" horiz-adv-x="1432" d="M94 0v1421h807q212 0 321 -77t109 -226v-155q0 -101 -75.5 -162.5t-202.5 -63.5q141 -7 217 -75.5t76 -188.5v-168q0 -149 -110 -227t-321 -78h-821zM397 289h475q97 0 137 35t40 118t-39.5 116.5t-137.5 33.5h-331v266h321q95 0 132.5 30.5t37.5 106.5t-37.5 107 t-132.5 31h-465v-844z" />
<glyph unicode="C" horiz-adv-x="1219" d="M86 446v531q0 209 118 326.5t326 117.5h627v-297h-598q-84 0 -127 -43.5t-43 -128.5v-483q0 -84 43 -127t127 -43h598v-299h-627q-208 0 -326 118.5t-118 327.5z" />
<glyph unicode="D" horiz-adv-x="1456" d="M94 0v1421h830q209 0 327.5 -117.5t118.5 -326.5v-531q0 -208 -118.5 -327t-327.5 -119h-830zM397 299h498q85 0 128.5 43t43.5 127v483q0 85 -44 128.5t-128 43.5h-498v-825z" />
<glyph unicode="E" horiz-adv-x="1319" d="M86 446v531q0 241 101.5 342.5t342.5 101.5h703v-297h-680q-93 0 -128.5 -35.5t-35.5 -130.5v-90h844v-299h-844v-106q0 -94 35 -129t129 -35h680v-299h-703q-240 0 -342 102.5t-102 343.5z" />
<glyph unicode="F" horiz-adv-x="1266" d="M94 0v977q0 240 102.5 342t344.5 102h682v-297h-660q-93 0 -129.5 -36t-36.5 -130v-90h826v-299h-826v-569h-303z" />
<glyph unicode="G" horiz-adv-x="1417" d="M86 446v531q0 209 118 326.5t326 117.5h736v-297h-707q-84 0 -127 -43.5t-43 -128.5v-483q0 -84 43 -127t127 -43h461v236h-311v296h614v-831h-793q-208 0 -326 118.5t-118 327.5z" />
<glyph unicode="H" horiz-adv-x="1464" d="M94 0v1421h303v-534h670v534h303v-1421h-303v588h-670v-588h-303z" />
<glyph unicode="I" horiz-adv-x="494" d="M94 0v1421h303v-1421h-303z" />
<glyph unicode="J" horiz-adv-x="1208" d="M33 418v182h303v-166q0 -93 35.5 -128.5t130.5 -35.5h145q94 0 129 35t35 129v987h303v-1003q0 -241 -102.5 -344t-343.5 -103h-189q-241 0 -343.5 103t-102.5 344z" />
<glyph unicode="K" horiz-adv-x="1446" d="M94 0v1421h303v-534h211q172 0 242 35t94 120l107 379h319l-135 -454q-29 -99 -97.5 -156.5t-172.5 -71.5q128 -16 191.5 -67.5t111.5 -212.5l139 -459h-324l-110 395q-33 114 -98.5 153.5t-251.5 39.5h-226v-588h-303z" />
<glyph unicode="L" horiz-adv-x="1042" d="M94 446v975h303v-958q0 -93 36 -128.5t130 -35.5h461v-299h-483q-241 0 -344 102.5t-103 343.5z" />
<glyph unicode="M" horiz-adv-x="2015" d="M94 0v1098q0 166 98 259t273 93q139 0 234.5 -65t129.5 -183l125 -432q8 -26 21 -38.5t33 -12.5q19 0 32 12.5t21 38.5l125 432q34 118 130 183t234 65q175 0 272 -93t97 -259v-1098h-303v1067q0 41 -19 62.5t-55 21.5q-32 0 -50.5 -17t-37.5 -81l-102 -326 q-48 -156 -132 -230.5t-212 -74.5t-211.5 74t-132.5 231l-103 326q-19 64 -37 81t-51 17q-36 0 -56 -22t-20 -62v-1067h-303z" />
<glyph unicode="N" horiz-adv-x="1626" d="M94 0v1098q0 166 98 259t273 93q159 0 247.5 -74t139.5 -254l213 -753q17 -60 35.5 -79.5t52.5 -19.5q37 0 56.5 23t19.5 67v1061h303v-1095q0 -167 -98 -261t-273 -94q-159 0 -247.5 74t-139.5 254l-213 754q-17 59 -35.5 78.5t-52.5 19.5q-38 0 -57 -22t-19 -66v-1063 h-303z" />
<glyph unicode="O" horiz-adv-x="1522" d="M86 418v588q0 208 118 326t326 118h461q209 0 327 -118t118 -326v-588q0 -209 -118 -328t-327 -119h-461q-208 0 -326 119t-118 328zM389 440q0 -84 43 -127t127 -43h404q84 0 127 43t43 127v541q0 84 -43 127t-127 43h-404q-84 0 -127 -43t-43 -127v-541z" />
<glyph unicode="P" horiz-adv-x="1341" d="M94 0v1421h789q206 0 308.5 -84.5t102.5 -253.5v-213q0 -169 -103 -254.5t-308 -85.5h-486v-530h-303zM397 829h445q73 0 111 29t38 84v70q0 55 -38 83.5t-111 28.5h-445v-295z" />
<glyph unicode="Q" horiz-adv-x="1540" d="M86 418v588q0 208 118 326t326 118h461q209 0 327 -118t118 -326v-588q0 -71 -21 -132t-63 -116l170 -182l-193 -166l-158 176q-34 -14 -75.5 -20.5t-104.5 -6.5h-461q-208 0 -326 119t-118 328zM389 440q0 -84 43 -127t127 -43h371l-168 183l194 161l177 -208v575 q0 84 -43 127t-127 43h-404q-84 0 -127 -43t-43 -127v-541z" />
<glyph unicode="R" horiz-adv-x="1413" d="M94 0v1421h785q222 0 328 -76.5t106 -236.5v-113q0 -123 -46 -196.5t-141 -102.5q59 -23 98 -78.5t56 -138.5l102 -479h-319l-70 385q-13 79 -53.5 126.5t-93.5 47.5h-305v285h325q69 0 106.5 26.5t37.5 75.5v76q0 49 -37.5 75.5t-106.5 26.5h-469v-1124h-303z" />
<glyph unicode="S" horiz-adv-x="1366" d="M57 995q0 198 123.5 312t337.5 114h737v-297h-743q-75 0 -113.5 -32.5t-38.5 -96.5q0 -63 38.5 -95t113.5 -32h319q230 0 359 -115t129 -319t-129 -319t-359 -115h-745v299h752q87 0 131.5 34t44.5 101q0 68 -44.5 101.5t-131.5 33.5h-320q-214 0 -337.5 114.5 t-123.5 311.5z" />
<glyph unicode="T" horiz-adv-x="1223" d="M29 1124v297h1165v-297h-430v-1124h-303v1124h-432z" />
<glyph unicode="U" horiz-adv-x="1479" d="M94 418v1003h303v-981q0 -84 43.5 -127t128.5 -43h340q85 0 128.5 43t43.5 127v981h303v-1003q0 -209 -118.5 -328t-327.5 -119h-397q-209 0 -328 119t-119 328z" />
<glyph unicode="V" horiz-adv-x="1305" d="M-80 1421h322l356 -1099q8 -27 21 -39.5t32 -12.5q21 0 34.5 13t21.5 39l356 1099h321l-393 -1185q-38 -133 -123 -199t-217 -66t-213 63t-127 202z" />
<glyph unicode="W" horiz-adv-x="2095" d="M-59 1421h311l274 -1099q7 -26 18 -39t27 -13q18 0 30 13t17 39l283 1099h293l285 -1099q6 -27 17 -39.5t28 -12.5q16 0 27 13t18 39l274 1099h314l-316 -1185q-39 -138 -114 -201.5t-197 -63.5q-123 0 -203 67.5t-110 197.5l-168 712l-170 -712q-39 -138 -114 -201.5 t-198 -63.5t-200.5 65.5t-112.5 199.5z" />
<glyph unicode="X" horiz-adv-x="1374" d="M-57 0l520 745l-463 676h360l285 -442q12 -17 22.5 -25t20.5 -8t19.5 7.5t21.5 25.5l285 442h360l-463 -676l521 -745h-369l-334 500q-12 17 -21.5 24.5t-19.5 7.5t-20.5 -8t-22.5 -24l-332 -500h-370z" />
<glyph unicode="Y" horiz-adv-x="1298" d="M-57 1421h338l278 -530q15 -30 39.5 -48t50.5 -18q27 0 52 18t40 48l279 530h336l-330 -628q-38 -75 -93.5 -128t-131.5 -87v-578h-303v578q-76 34 -132 87t-94 128z" />
<glyph unicode="Z" horiz-adv-x="1298" d="M43 158v49q0 33 18.5 76t49.5 77l596 674q17 19 25.5 34t8.5 26q0 17 -15 23.5t-71 6.5h-536v297h878q105 0 153 -38t48 -121v-50q0 -33 -18.5 -76t-49.5 -77l-595 -672q-21 -22 -28 -34.5t-7 -22.5q0 -18 17 -24.5t69 -6.5h651v-299h-1004q-97 0 -143.5 38.5 t-46.5 119.5z" />
<glyph unicode="[" horiz-adv-x="735" d="M141 -25v1143q0 158 73.5 230.5t231.5 72.5h256v-266h-178q-75 0 -95.5 -20.5t-20.5 -90.5v-993q0 -70 21 -91t95 -21h178v-267h-256q-158 0 -231.5 73t-73.5 230z" />
<glyph unicode="\" horiz-adv-x="958" d="M-18 1421h235l778 -1611h-237z" />
<glyph unicode="]" horiz-adv-x="735" d="M33 -61h178q77 3 97 23.5t20 88.5v993q0 70 -21 90.5t-96 20.5h-178v266h256q158 0 230.5 -72.5t72.5 -230.5v-1143q0 -158 -72.5 -230.5t-230.5 -72.5h-256v267z" />
<glyph unicode="^" horiz-adv-x="2048" d="M416 899l481 561h252l481 -561h-235l-371 371l-373 -371h-235z" />
<glyph unicode="_" d="M0 -279h1024v-204h-1024v204z" />
<glyph unicode="`" d="M197 1436h270l201 -285h-158z" />
<glyph unicode="a" horiz-adv-x="977" d="M-80 0l287 866q32 99 105 152t175 53q103 0 173.5 -51.5t107.5 -153.5l289 -866h-279l-237 760q-8 26 -21 38.5t-33 12.5q-19 0 -31 -12t-20 -39l-237 -760h-279z" />
<glyph unicode="b" horiz-adv-x="1124" d="M86 0v1053h608q158 0 243 -61.5t85 -176.5v-108q0 -60 -33.5 -102.5t-93.5 -59.5q76 -14 111.5 -58t35.5 -125v-110q0 -125 -84.5 -188.5t-250.5 -63.5h-621zM346 252h338q60 0 81 19t21 71q0 53 -20.5 71.5t-81.5 18.5h-244v213h226q59 0 79.5 16.5t20.5 61.5 t-20.5 61.5t-79.5 16.5h-320v-549z" />
<glyph unicode="c" horiz-adv-x="967" d="M80 356v340q0 169 93.5 263t262.5 94h469v-260h-426q-63 0 -98 -35.5t-35 -98.5v-266q0 -63 35 -98t98 -35h426v-260h-469q-169 0 -262.5 93.5t-93.5 262.5z" />
<glyph unicode="d" horiz-adv-x="1133" d="M86 0v1053h610q169 0 263 -94t94 -263v-340q0 -169 -94 -262.5t-263 -93.5h-610zM350 260h305q63 0 97 35t34 98v266q0 64 -34 99t-97 35h-305v-533z" />
<glyph unicode="e" horiz-adv-x="1034" d="M80 342v369q0 182 81 262t267 80h520v-256h-508q-57 0 -75.5 -17.5t-18.5 -70.5v-50h602v-256h-602v-59q0 -54 18 -71t76 -17h508v-256h-520q-186 0 -267 79.5t-81 262.5z" />
<glyph unicode="f" horiz-adv-x="995" d="M86 0v711q0 182 81 262t267 80h520v-260h-510q-56 0 -75 -18t-19 -73v-73h604v-262h-604v-367h-264z" />
<glyph unicode="g" horiz-adv-x="1114" d="M80 342v369q0 159 93 250.5t255 91.5h559v-260h-543q-50 0 -74 -23t-24 -72v-344q0 -48 24 -71t74 -23h320v131h-197v250h461v-641h-600q-162 0 -255 91.5t-93 250.5z" />
<glyph unicode="h" horiz-adv-x="1141" d="M86 0v1053h264v-375h441v375h264v-1053h-264v418h-441v-418h-264z" />
<glyph unicode="i" horiz-adv-x="436" d="M86 0v1053h264v-1053h-264z" />
<glyph unicode="j" horiz-adv-x="952" d="M33 322v157h266v-149q0 -54 18.5 -71t75.5 -17h115q57 0 75.5 17t18.5 71v723h266v-731q0 -183 -80.5 -261.5t-267.5 -78.5h-139q-187 0 -267.5 78.5t-80.5 261.5z" />
<glyph unicode="k" horiz-adv-x="1128" d="M86 0v1053h264v-377h131q116 0 161.5 20t59.5 70l82 287h285l-111 -353q-19 -65 -55 -103t-84 -46q64 -13 99.5 -50.5t66.5 -142.5l111 -358h-289l-86 299q-21 69 -59 92t-170 23h-142v-414h-264z" />
<glyph unicode="l" horiz-adv-x="815" d="M86 346v707h264v-670q0 -72 25.5 -97.5t97.5 -25.5h324v-260h-365q-187 0 -266.5 80t-79.5 266z" />
<glyph unicode="m" horiz-adv-x="1692" d="M86 0v768q0 137 90 220t240 83q136 0 219 -67.5t113 -202.5l45 -212q4 -19 18 -30.5t35 -11.5t35.5 11t19.5 32l45 211q29 135 112 202.5t220 67.5q150 0 240 -83t90 -220v-768h-267v721q0 43 -17.5 66.5t-49.5 23.5t-51 -22.5t-33 -77.5l-51 -195 q-28 -110 -104.5 -170.5t-188.5 -60.5t-188 59.5t-105 171.5l-51 195q-14 55 -33.5 77.5t-50.5 22.5q-32 0 -50 -23.5t-18 -66.5v-721h-264z" />
<glyph unicode="n" horiz-adv-x="1341" d="M86 0v774q0 134 90.5 215.5t239.5 81.5q136 0 219 -68t110 -202l95 -461q11 -52 31 -75t55 -23q30 0 47.5 24t17.5 66v721h264v-774q0 -134 -90 -215.5t-239 -81.5q-136 0 -219 68t-111 202l-94 458q-12 54 -32 77.5t-54 23.5q-30 0 -48 -24t-18 -66v-721h-264z" />
<glyph unicode="o" horiz-adv-x="1190" d="M80 338v377q0 169 93.5 262.5t262.5 93.5h318q169 0 262.5 -93.5t93.5 -262.5v-377q0 -169 -93.5 -262.5t-262.5 -93.5h-318q-169 0 -262.5 93.5t-93.5 262.5zM346 375q0 -63 35 -98t98 -35h232q63 0 98 35t35 98v303q0 63 -35 98t-98 35h-232q-63 0 -98 -35t-35 -98 v-303z" />
<glyph unicode="p" horiz-adv-x="1049" d="M86 0v1053h596q159 0 241.5 -68t82.5 -199v-178q0 -131 -82.5 -199.5t-241.5 -68.5h-332v-340h-264zM350 602h307q48 0 65 12.5t17 47.5v69q0 35 -17.5 48.5t-64.5 13.5h-307v-191z" />
<glyph unicode="q" horiz-adv-x="1208" d="M80 338v377q0 169 93.5 262.5t262.5 93.5h318q169 0 262.5 -93.5t93.5 -262.5v-377q0 -56 -13 -101.5t-40 -84.5l131 -132l-164 -155l-135 141q-27 -13 -59.5 -18.5t-75.5 -5.5h-318q-169 0 -262.5 93.5t-93.5 262.5zM346 375q0 -63 35 -98t98 -35h191l-113 114l166 154 l121 -135v303q0 63 -35 98t-98 35h-232q-63 0 -98 -35t-35 -98v-303z" />
<glyph unicode="r" horiz-adv-x="1110" d="M86 0v1053h592q172 0 257 -62t85 -188v-117q0 -83 -31.5 -127.5t-101.5 -62.5q44 -14 67.5 -43t40.5 -101l80 -352h-282l-56 275q-9 47 -31 73.5t-53 26.5h-207v248h230q41 0 59.5 12.5t18.5 40.5v61q0 29 -19 42.5t-59 13.5h-326v-793h-264z" />
<glyph unicode="s" horiz-adv-x="1071" d="M57 727q0 149 97 237.5t262 88.5h557v-260h-565q-45 0 -65.5 -16t-20.5 -50t20.5 -49.5t65.5 -15.5h233q177 0 278 -88t101 -240q0 -156 -101 -245t-278 -89h-565v260h575q54 0 78.5 17t24.5 55q0 37 -24 53t-79 16h-235q-165 0 -262 88.5t-97 237.5z" />
<glyph unicode="t" horiz-adv-x="948" d="M29 793v260h891v-260h-314v-793h-264v793h-313z" />
<glyph unicode="u" horiz-adv-x="1176" d="M86 338v715h264v-678q0 -63 35 -98t98 -35h209q63 0 98 35t35 98v678h265v-715q0 -170 -93 -263t-262 -93h-293q-169 0 -262.5 93.5t-93.5 262.5z" />
<glyph unicode="v" horiz-adv-x="977" d="M-80 1053h279l237 -760q8 -27 20 -39t31 -12q20 0 33 12t21 39l237 760h279l-289 -867q-37 -101 -107.5 -152.5t-173.5 -51.5q-102 0 -175 53t-105 151z" />
<glyph unicode="w" horiz-adv-x="1731" d="M-59 1053h274l213 -760q8 -26 21 -38.5t32 -12.5q20 0 34 13t20 38l198 760h264l199 -760q6 -25 20 -38t33 -13t32.5 13t20.5 37l214 761h274l-262 -867q-37 -104 -105 -154t-174 -50t-178.5 54t-95.5 150l-111 459l-108 -459q-26 -99 -96.5 -151.5t-178.5 -52.5 q-105 0 -176 52t-102 152z" />
<glyph unicode="x" horiz-adv-x="1071" d="M-55 0l397 553l-356 500h325l183 -287q8 -15 19.5 -23t23.5 -8q11 0 21.5 8t19.5 23l182 287h325l-356 -500l397 -553h-331l-217 332q-13 18 -22.5 25.5t-18.5 7.5q-11 0 -21.5 -8.5t-21.5 -24.5l-218 -332h-331z" />
<glyph unicode="y" horiz-adv-x="995" d="M-55 1053h301l203 -381q10 -17 22.5 -26t26.5 -9t26.5 9t22.5 26l203 381h301l-260 -480q-32 -56 -71 -94.5t-89 -60.5v-418h-266v418q-52 23 -91.5 62t-68.5 93z" />
<glyph unicode="z" horiz-adv-x="1014" d="M47 139v33q0 31 15 67t40 62l375 401q18 18 27.5 33.5t9.5 26.5q0 17 -15.5 23.5t-72.5 7.5h-324v260h660q85 0 127.5 -35.5t42.5 -106.5v-34q0 -30 -15.5 -66t-39.5 -61l-377 -400q-19 -20 -27 -33.5t-8 -23.5q0 -18 18.5 -25.5t67.5 -7.5h407v-260h-747 q-81 0 -122.5 35t-41.5 104z" />
<glyph unicode="{" d="M158 426v209q7 0 21 -1t20 -1q120 0 171.5 58t51.5 196v250q0 143 23.5 201t80.5 92q47 25 114 37t167 12q12 0 37 -1t39 -1v-209q-9 0 -25 1t-22 1q-101 0 -136.5 -38.5t-35.5 -162.5v-240q0 -148 -45 -210t-162 -89q117 -27 162 -88t45 -209v-241q0 -123 35 -161 t137 -38q6 0 22 1t25 1v-209q-14 0 -39 -1t-37 -1q-100 0 -167 12t-114 37q-57 34 -80.5 91.5t-23.5 199.5v252q0 137 -51 194.5t-172 57.5q-6 0 -20 -1t-21 -1z" />
<glyph unicode="|" d="M410 -483v2048h206v-2048h-206z" />
<glyph unicode="}" d="M143 -205q9 0 25 -1t22 -1q101 0 136.5 38.5t35.5 160.5v239q0 150 45 211.5t162 87.5q-117 27 -162 89t-45 210v242q0 122 -35.5 160.5t-136.5 38.5q-6 0 -22 -1t-25 -1v209h68q110 0 177 -12t112 -38q57 -32 80.5 -91.5t23.5 -198.5v-252q0 -137 51 -194.5t172 -57.5 q6 0 20 1t21 1v-209h-37q-125 0 -176 -56t-51 -194v-252q0 -143 -23.5 -201t-80.5 -90q-47 -25 -114 -37t-167 -12q-12 0 -37 1t-39 1v209z" />
<glyph unicode="~" horiz-adv-x="1706" d="M178 418v221q107 72 204 107.5t183 35.5q117 0 291 -58l4 -1q18 -6 55 -19q155 -55 240 -55t175 37t200 117v-221q-104 -71 -196.5 -104.5t-182.5 -33.5q-46 0 -92 8t-92 23q-24 8 -71 25q-219 75 -333 75q-85 0 -177.5 -37.5t-207.5 -119.5z" />
<glyph unicode="&#xa1;" horiz-adv-x="702" d="M176 1186v123q0 57 28 84.5t85 27.5h123q57 0 85.5 -28t28.5 -84v-123q0 -57 -29 -86t-85 -29h-123q-57 0 -85 28.5t-28 86.5zM199 0v967h303v-967h-303z" />
<glyph unicode="&#xa2;" horiz-adv-x="1309" d="M123 446v351q0 208 118.5 326t327.5 118h37v205h285v-205h270v-297h-563q-84 0 -128 -43.5t-44 -128.5v-303q0 -84 43.5 -127t128.5 -43h588v-299h-295v-227h-285v227h-37q-209 0 -327.5 119t-118.5 327z" />
<glyph unicode="&#xa3;" horiz-adv-x="1446" d="M80 518v260h141v228q0 240 102.5 342t344.5 102h174q242 0 344 -102t102 -342v-60h-303v41q0 93 -35.5 128.5t-130.5 35.5h-129q-94 0 -130 -35.5t-36 -128.5v-209h465v-260h-465v-219h764v-299h-1067v518h-141z" />
<glyph unicode="&#xa4;" horiz-adv-x="1503" d="M39 446l65 191h166v147h-231l67 191h164v10q0 200 120.5 318t326.5 118h624v-297h-598q-77 0 -119.5 -37t-50.5 -112h535l-70 -191h-465v-147h402l-68 -191h-334q8 -74 50.5 -110.5t119.5 -36.5h598v-299h-624q-206 0 -326.5 118t-120.5 318v10h-231z" />
<glyph unicode="&#xa5;" horiz-adv-x="1450" d="M18 1421h338l279 -530q15 -30 39.5 -48t50.5 -18q27 0 52 18t40 48l279 530h336l-238 -438h180v-188h-272q-40 -76 -95.5 -129.5t-129.5 -87.5h497v-189h-497v-389h-304v389h-497v189h497q-74 34 -129.5 87.5t-95.5 129.5h-272v188h180z" />
<glyph unicode="&#xa6;" d="M410 -350v758h206v-758h-206zM410 674v758h206v-758h-206z" />
<glyph unicode="&#xa7;" horiz-adv-x="1442" d="M94 532q0 101 51 179t146 123q-63 51 -94 113t-31 134q0 159 120 249.5t332 90.5h580v-270h-612q-77 0 -113.5 -22.5t-36.5 -69.5t36.5 -69.5t113.5 -22.5h274q225 0 356.5 -106t131.5 -286q0 -104 -51.5 -179t-145.5 -107q67 -45 101 -108t34 -142q0 -82 -38.5 -156 t-104.5 -121q-54 -37 -130 -53t-212 -16h-572v268h631q79 0 116.5 24t37.5 74t-37 73.5t-117 23.5h-278q-228 0 -358 101t-130 275zM365 561q0 -67 44.5 -101t133.5 -34h356q88 0 132 34t44 101q0 68 -44 101.5t-132 33.5h-356h-13q-78 0 -121.5 -35.5t-43.5 -99.5z" />
<glyph unicode="&#xa8;" d="M231 1176v235h220v-235h-220zM573 1176v235h220v-235h-220z" />
<glyph unicode="&#xa9;" horiz-adv-x="1706" d="M111 733q0 149 56 284.5t163 244.5q105 106 238 161.5t284 55.5q152 0 287.5 -56t242.5 -163q105 -105 160 -240.5t55 -286.5q0 -152 -54.5 -284t-160.5 -236q-111 -108 -248 -165.5t-282 -57.5q-147 0 -280.5 56.5t-241.5 164.5q-107 106 -163 240.5t-56 281.5zM233 735 q0 -125 47 -237t136 -201q88 -88 201 -135t237 -47t237.5 47t204.5 137q88 86 133.5 197t45.5 239q0 126 -46.5 238.5t-134.5 200.5q-89 89 -201 135.5t-239 46.5q-128 0 -239.5 -46t-198.5 -134q-89 -90 -136 -203.5t-47 -237.5zM453 729q0 206 109.5 328.5t293.5 122.5 q152 0 250.5 -78t105.5 -205h-188q-8 70 -53 108.5t-119 38.5q-91 0 -143 -81.5t-52 -227.5q0 -147 52 -224t151 -77q73 0 117 42t53 119l193 1q-8 -139 -109 -223t-260 -84q-186 0 -293.5 118t-107.5 322z" />
<glyph unicode="&#xaa;" horiz-adv-x="733" d="M-59 686l215 606q24 70 78.5 107t132.5 37q76 0 128.5 -36t79.5 -108l218 -606h-209l-178 533q-7 18 -16 26t-23 8q-15 0 -24 -7.5t-15 -26.5l-178 -533h-209z" />
<glyph unicode="&#xab;" horiz-adv-x="1208" d="M141 526q0 22 14 57.5t40 75.5l192 308h262l-192 -308q-26 -40 -40 -75.5t-14 -57.5t14 -57t40 -76l192 -307h-262l-192 307q-26 41 -40 76t-14 57zM592 526q0 22 14 57.5t39 75.5l193 308h262l-193 -308q-25 -40 -39 -75.5t-14 -57.5t14 -57t39 -76l193 -307h-262 l-193 307q-25 41 -39 76t-14 57z" />
<glyph unicode="&#xac;" horiz-adv-x="1706" d="M254 668v196h1198v-502h-199v306h-999z" />
<glyph unicode="&#xad;" horiz-adv-x="758" d="M104 383v262h549v-262h-549z" />
<glyph unicode="&#xae;" horiz-adv-x="1706" d="M111 733q0 102 27 198.5t81 188.5q101 170 267 264.5t366 94.5q154 0 290.5 -57.5t243.5 -166.5q103 -104 157 -238t54 -284q0 -152 -56 -287.5t-163 -238.5q-107 -105 -243.5 -161t-282.5 -56q-149 0 -285 58t-243 167q-104 105 -158.5 238.5t-54.5 279.5zM233 735 q0 -124 46 -235.5t133 -198.5q89 -91 203 -139.5t237 -48.5q120 0 233.5 47t206.5 135q87 84 135 196t48 232q0 133 -44.5 245t-132.5 201q-90 93 -202.5 140t-241.5 47q-127 0 -236 -44.5t-196 -131.5q-91 -91 -140 -206.5t-49 -238.5zM545 336v825h323q176 0 264.5 -59.5 t88.5 -177.5q0 -82 -48 -140t-133 -79l185 -369h-224l-157 338h-99v-338h-200zM745 795h99q88 0 129 28t41 88q0 63 -44 93t-136 30h-89v-239z" />
<glyph unicode="&#xaf;" d="M231 1219v149h562v-149h-562z" />
<glyph unicode="&#xb0;" horiz-adv-x="674" d="M35 1159q0 127 88.5 216t214.5 89t214.5 -89.5t88.5 -215.5q0 -125 -89 -214t-216 -89q-126 0 -213.5 88t-87.5 215zM162 1161q0 -74 51 -125t125 -51q72 0 123 52t51 124t-51 123t-123 51q-73 0 -124.5 -51t-51.5 -123z" />
<glyph unicode="&#xb1;" horiz-adv-x="1706" d="M254 -2v199h1198v-199h-1198zM254 698v199h498v326h202v-326h498v-199h-498v-325h-202v325h-498z" />
<glyph unicode="&#xb2;" horiz-adv-x="872" d="M49 569v256q0 125 84.5 193.5t239.5 68.5h145q50 0 75 19.5t25 58.5t-25 58.5t-75 19.5h-426v178h424q143 0 223 -67.5t80 -188.5t-80 -188.5t-223 -67.5h-143q-63 0 -93 -23.5t-30 -74.5v-61h584v-181h-785z" />
<glyph unicode="&#xb3;" horiz-adv-x="819" d="M53 569v181h383q63 0 89 20t26 68q0 47 -25.5 66.5t-89.5 19.5h-227v159h219q62 0 87.5 18.5t25.5 61.5q0 44 -25 62t-88 18h-367v178h396q140 0 212 -46t72 -134v-94q0 -60 -49.5 -96.5t-133.5 -38.5q92 -5 143 -46t51 -112v-102q0 -89 -73.5 -136t-211.5 -47h-414z" />
<glyph unicode="&#xb4;" d="M356 1151l201 285h270l-313 -285h-158z" />
<glyph unicode="&#xb5;" horiz-adv-x="1249" d="M-63 -438l268 1530h289l-76 -435q-15 -80 -23 -151.5t-8 -116.5q0 -93 42 -138.5t128 -45.5q100 0 155.5 82t92.5 291l90 514h289l-193 -1092h-268l18 117q-42 -78 -93.5 -114t-121.5 -36q-67 0 -119 29.5t-94 91.5l-90 -526h-286z" />
<glyph unicode="&#xb6;" d="M41 1130q0 158 107 253.5t284 95.5h551v-111h-113v-1368h-151v1368h-158v-1368h-153v784q-167 6 -267 101t-100 245z" />
<glyph unicode="&#xb7;" horiz-adv-x="702" d="M162 635v151q0 58 28 86.5t84 28.5h152q57 0 86 -29t29 -86v-151q0 -56 -29 -84.5t-86 -28.5h-152q-56 0 -84 28t-28 85z" />
<glyph unicode="&#xb8;" d="M338 -413l16 111q45 -8 88 -12.5t86 -4.5q41 0 61.5 17t20.5 50q0 34 -26 48t-90 14q-8 0 -25.5 -1.5t-28.5 -1.5l47 193h97l-27 -82q107 0 162 -44.5t55 -129.5q0 -91 -62.5 -135.5t-189.5 -44.5q-38 0 -84.5 5.5t-99.5 17.5z" />
<glyph unicode="&#xb9;" horiz-adv-x="541" d="M35 1161v135l217 125h145v-852h-200v592h-162z" />
<glyph unicode="&#xba;" horiz-adv-x="893" d="M59 924v262q0 118 70.5 184t198.5 66h237q128 0 198.5 -66t70.5 -184v-262q0 -119 -70.5 -184.5t-198.5 -65.5h-237q-128 0 -198.5 65.5t-70.5 184.5zM260 948q0 -44 26 -68t74 -24h172q49 0 75 24t26 68v213q0 44 -26.5 68t-74.5 24h-172q-47 0 -73.5 -24t-26.5 -68 v-213z" />
<glyph unicode="&#xbb;" horiz-adv-x="1208" d="M109 86l192 307q25 41 39 76t14 57t-14 57.5t-39 75.5l-192 308h262l192 -308q26 -40 39.5 -75.5t13.5 -57.5t-13.5 -57t-39.5 -76l-192 -307h-262zM559 86l193 307q25 41 39 76t14 57t-14 57.5t-39 75.5l-193 308h262l193 -308q25 -40 39 -75.5t14 -57.5t-14 -57 t-39 -76l-193 -307h-262z" />
<glyph unicode="&#xbc;" horiz-adv-x="1686" d="M33 1178v127l209 118h137v-796h-193v551h-153zM174 -29l797 1479h227l-797 -1479h-227zM870 188v168l488 441h190v-441h111v-168h-111v-188h-190v188h-488zM1087 356h271v234z" />
<glyph unicode="&#xbd;" horiz-adv-x="1692" d="M33 1178v127l209 118h137v-796h-193v551h-153zM174 -29l797 1479h227l-797 -1479h-227zM905 0v240q0 116 81 179.5t228 63.5h138q49 0 73.5 18.5t24.5 55.5q0 36 -25 54t-73 18h-406v168h406q135 0 211.5 -64t76.5 -176q0 -113 -76 -176.5t-212 -63.5h-140 q-59 0 -86.5 -22t-27.5 -70v-57h555v-168h-748z" />
<glyph unicode="&#xbe;" horiz-adv-x="1952" d="M51 627v168h365q60 0 84 18.5t24 63.5q0 44 -24 62.5t-84 18.5h-215v150h209q58 0 82 16.5t24 57.5q0 40 -23.5 56.5t-82.5 16.5h-351v168h377q134 0 202.5 -43t68.5 -127v-88q0 -56 -47.5 -90.5t-126.5 -34.5q87 -4 135.5 -43t48.5 -106v-94q0 -83 -70 -126.5 t-203 -43.5h-393zM440 -29l797 1479h227l-796 -1479h-228zM1137 188v168l487 441h191v-441h110v-168h-110v-188h-191v188h-487zM1354 356h270v234z" />
<glyph unicode="&#xbf;" horiz-adv-x="1290" d="M100 414q0 180 111 282.5t333 128.5q107 14 139 43.5t34 97.5l303 1q2 -17 2 -41q0 -39 -5.5 -76.5t-15.5 -67.5q-29 -89 -79.5 -137t-149.5 -80q-52 -17 -148 -22.5t-130 -18.5q-45 -17 -68 -44.5t-23 -65.5q0 -54 41.5 -84.5t114.5 -30.5h602v-299h-577 q-221 0 -352.5 113t-131.5 301zM682 1186v123q0 56 28.5 84t86.5 28h123q57 0 85.5 -28t28.5 -84v-123q0 -57 -29 -86t-85 -29h-123q-57 0 -86 29t-29 86z" />
<glyph unicode="&#xc0;" horiz-adv-x="1305" d="M-80 0l391 1188q46 137 126.5 199.5t213.5 62.5t217.5 -65.5t122.5 -196.5l393 -1188h-321l-356 1101q-8 26 -21.5 38t-34.5 12q-20 0 -32.5 -11.5t-20.5 -37.5l-356 -1102h-322zM338 1809h270l201 -285h-158z" />
<glyph unicode="&#xc1;" horiz-adv-x="1305" d="M-80 0l391 1188q46 137 126.5 199.5t213.5 62.5t217.5 -65.5t122.5 -196.5l393 -1188h-321l-356 1101q-8 26 -21.5 38t-34.5 12q-20 0 -32.5 -11.5t-20.5 -37.5l-356 -1102h-322zM497 1524l201 285h270l-313 -285h-158z" />
<glyph unicode="&#xc2;" horiz-adv-x="1305" d="M-80 0l391 1188q46 137 126.5 199.5t213.5 62.5t217.5 -65.5t122.5 -196.5l393 -1188h-321l-356 1101q-8 26 -21.5 38t-34.5 12q-20 0 -32.5 -11.5t-20.5 -37.5l-356 -1102h-322zM340 1524l202 285h222l202 -285h-157l-156 160l-156 -160h-157z" />
<glyph unicode="&#xc3;" horiz-adv-x="1305" d="M-80 0l391 1188q46 137 126.5 199.5t213.5 62.5t217.5 -65.5t122.5 -196.5l393 -1188h-321l-356 1101q-8 26 -21.5 38t-34.5 12q-20 0 -32.5 -11.5t-20.5 -37.5l-356 -1102h-322zM344 1542q25 113 74.5 166.5t128.5 53.5q18 0 32.5 -2t28.5 -7l98 -32q12 -4 24.5 -5.5 t26.5 -1.5q32 0 54 20t32 58h119q-17 -104 -73.5 -165.5t-133.5 -61.5q-15 0 -28.5 2t-26.5 6l-108 35q-7 2 -14.5 3t-22.5 1q-39 0 -61 -16.5t-34 -53.5h-116z" />
<glyph unicode="&#xc4;" horiz-adv-x="1305" d="M-80 0l391 1188q46 137 126.5 199.5t213.5 62.5t217.5 -65.5t122.5 -196.5l393 -1188h-321l-356 1101q-8 26 -21.5 38t-34.5 12q-20 0 -32.5 -11.5t-20.5 -37.5l-356 -1102h-322zM372 1549v235h220v-235h-220zM714 1549v235h220v-235h-220z" />
<glyph unicode="&#xc5;" horiz-adv-x="1305" d="M-80 0l391 1188q46 137 126.5 199.5t213.5 62.5t217.5 -65.5t122.5 -196.5l393 -1188h-321l-356 1101q-8 26 -21.5 38t-34.5 12q-20 0 -32.5 -11.5t-20.5 -37.5l-356 -1102h-322zM436 1724q0 90 63 152.5t152 62.5t152 -62.5t63 -152.5t-62.5 -153.5t-152.5 -63.5 q-89 0 -152 63.5t-63 153.5zM565 1722q0 -35 25 -59.5t61 -24.5q37 0 61.5 24.5t24.5 59.5q0 38 -24 62t-62 24q-37 0 -61.5 -24.5t-24.5 -61.5z" />
<glyph unicode="&#xc6;" horiz-adv-x="2099" d="M-123 0l572 1180q64 131 154.5 186t244.5 55h1167v-297h-657q-93 0 -128.5 -35.5t-35.5 -130.5v-90h821v-299h-821v-106q0 -94 35 -129t129 -35h657v-299h-680q-240 0 -342 102.5t-102 343.5v590q0 45 -17 66.5t-51 21.5q-31 0 -58.5 -21t-45.5 -59l-506 -1044h-336z" />
<glyph unicode="&#xc7;" horiz-adv-x="1219" d="M86 446v531q0 209 118 326.5t326 117.5h627v-297h-598q-84 0 -127 -43.5t-43 -128.5v-483q0 -84 43 -127t127 -43h598v-299h-627q-208 0 -326 118.5t-118 327.5zM436 -413l16 111q45 -8 88 -12.5t86 -4.5q41 0 61.5 17t20.5 50q0 34 -26 48t-90 14q-8 0 -25.5 -1.5 t-28.5 -1.5l47 193h97l-27 -82q107 0 162 -44.5t55 -129.5q0 -91 -62.5 -135.5t-189.5 -44.5q-38 0 -84.5 5.5t-99.5 17.5z" />
<glyph unicode="&#xc8;" horiz-adv-x="1319" d="M86 446v531q0 241 101.5 342.5t342.5 101.5h703v-297h-680q-93 0 -128.5 -35.5t-35.5 -130.5v-90h844v-299h-844v-106q0 -94 35 -129t129 -35h680v-299h-703q-240 0 -342 102.5t-102 343.5zM402 1809h270l201 -285h-158z" />
<glyph unicode="&#xc9;" horiz-adv-x="1319" d="M86 446v531q0 241 101.5 342.5t342.5 101.5h703v-297h-680q-93 0 -128.5 -35.5t-35.5 -130.5v-90h844v-299h-844v-106q0 -94 35 -129t129 -35h680v-299h-703q-240 0 -342 102.5t-102 343.5zM561 1524l201 285h270l-313 -285h-158z" />
<glyph unicode="&#xca;" horiz-adv-x="1319" d="M86 446v531q0 241 101.5 342.5t342.5 101.5h703v-297h-680q-93 0 -128.5 -35.5t-35.5 -130.5v-90h844v-299h-844v-106q0 -94 35 -129t129 -35h680v-299h-703q-240 0 -342 102.5t-102 343.5zM404 1524l202 285h222l202 -285h-157l-156 160l-156 -160h-157z" />
<glyph unicode="&#xcb;" horiz-adv-x="1319" d="M86 446v531q0 241 101.5 342.5t342.5 101.5h703v-297h-680q-93 0 -128.5 -35.5t-35.5 -130.5v-90h844v-299h-844v-106q0 -94 35 -129t129 -35h680v-299h-703q-240 0 -342 102.5t-102 343.5zM436 1549v235h220v-235h-220zM778 1549v235h220v-235h-220z" />
<glyph unicode="&#xcc;" horiz-adv-x="494" d="M-67 1809h270l201 -285h-158zM94 0v1421h303v-1421h-303z" />
<glyph unicode="&#xcd;" horiz-adv-x="494" d="M92 1524l201 285h270l-313 -285h-158zM94 0v1421h303v-1421h-303z" />
<glyph unicode="&#xce;" horiz-adv-x="494" d="M-65 1524l202 285h222l202 -285h-157l-156 160l-156 -160h-157zM94 0v1421h303v-1421h-303z" />
<glyph unicode="&#xcf;" horiz-adv-x="494" d="M-33 1549v235h220v-235h-220zM94 0v1421h303v-1421h-303zM309 1549v235h220v-235h-220z" />
<glyph unicode="&#xd0;" horiz-adv-x="1493" d="M10 606v228h123v587h830q208 0 326 -117.5t118 -326.5v-531q0 -209 -118 -327.5t-326 -118.5h-830v606h-123zM436 299h498q84 0 127 43t43 127v483q0 85 -43 128.5t-127 43.5h-498v-290h314v-228h-314v-307z" />
<glyph unicode="&#xd1;" horiz-adv-x="1626" d="M94 0v1098q0 166 98 259t273 93q159 0 247.5 -74t139.5 -254l213 -753q17 -60 35.5 -79.5t52.5 -19.5q37 0 56.5 23t19.5 67v1061h303v-1095q0 -167 -98 -261t-273 -94q-159 0 -247.5 74t-139.5 254l-213 754q-17 59 -35.5 78.5t-52.5 19.5q-38 0 -57 -22t-19 -66v-1063 h-303zM504 1542q25 113 74.5 166.5t128.5 53.5q18 0 32.5 -2t28.5 -7l98 -32q12 -4 24.5 -5.5t26.5 -1.5q32 0 54 20t32 58h119q-17 -104 -73.5 -165.5t-133.5 -61.5q-15 0 -28.5 2t-26.5 6l-108 35q-7 2 -14.5 3t-22.5 1q-39 0 -61 -16.5t-34 -53.5h-116z" />
<glyph unicode="&#xd2;" horiz-adv-x="1522" d="M86 418v588q0 208 118 326t326 118h461q209 0 327 -118t118 -326v-588q0 -209 -118 -328t-327 -119h-461q-208 0 -326 119t-118 328zM389 440q0 -84 43 -127t127 -43h404q84 0 127 43t43 127v541q0 84 -43 127t-127 43h-404q-84 0 -127 -43t-43 -127v-541zM447 1809h270 l201 -285h-158z" />
<glyph unicode="&#xd3;" horiz-adv-x="1522" d="M86 418v588q0 208 118 326t326 118h461q209 0 327 -118t118 -326v-588q0 -209 -118 -328t-327 -119h-461q-208 0 -326 119t-118 328zM389 440q0 -84 43 -127t127 -43h404q84 0 127 43t43 127v541q0 84 -43 127t-127 43h-404q-84 0 -127 -43t-43 -127v-541zM606 1524 l201 285h270l-313 -285h-158z" />
<glyph unicode="&#xd4;" horiz-adv-x="1522" d="M86 418v588q0 208 118 326t326 118h461q209 0 327 -118t118 -326v-588q0 -209 -118 -328t-327 -119h-461q-208 0 -326 119t-118 328zM389 440q0 -84 43 -127t127 -43h404q84 0 127 43t43 127v541q0 84 -43 127t-127 43h-404q-84 0 -127 -43t-43 -127v-541zM449 1524 l202 285h222l202 -285h-157l-156 160l-156 -160h-157z" />
<glyph unicode="&#xd5;" horiz-adv-x="1522" d="M86 418v588q0 208 118 326t326 118h461q209 0 327 -118t118 -326v-588q0 -209 -118 -328t-327 -119h-461q-208 0 -326 119t-118 328zM389 440q0 -84 43 -127t127 -43h404q84 0 127 43t43 127v541q0 84 -43 127t-127 43h-404q-84 0 -127 -43t-43 -127v-541zM453 1542 q25 113 74.5 166.5t128.5 53.5q18 0 32.5 -2t28.5 -7l98 -32q12 -4 24.5 -5.5t26.5 -1.5q32 0 54 20t32 58h119q-17 -104 -73.5 -165.5t-133.5 -61.5q-15 0 -28.5 2t-26.5 6l-108 35q-7 2 -14.5 3t-22.5 1q-39 0 -61 -16.5t-34 -53.5h-116z" />
<glyph unicode="&#xd6;" horiz-adv-x="1522" d="M86 418v588q0 208 118 326t326 118h461q209 0 327 -118t118 -326v-588q0 -209 -118 -328t-327 -119h-461q-208 0 -326 119t-118 328zM389 440q0 -84 43 -127t127 -43h404q84 0 127 43t43 127v541q0 84 -43 127t-127 43h-404q-84 0 -127 -43t-43 -127v-541zM481 1549v235 h220v-235h-220zM823 1549v235h220v-235h-220z" />
<glyph unicode="&#xd7;" horiz-adv-x="1706" d="M276 160l451 450l-451 453l140 139l450 -450l451 450l141 -139l-450 -453l450 -450l-141 -140l-451 451l-450 -451z" />
<glyph unicode="&#xd8;" horiz-adv-x="1522" d="M14 -174l191 264q-59 61 -89 143.5t-30 184.5v588q0 208 118 326t326 118h461q45 0 86 -5.5t80 -17.5l94 138h230l-164 -234q59 -55 89 -137.5t30 -187.5v-588q0 -209 -118 -328t-327 -119h-461q-41 0 -82.5 6.5t-82.5 18.5l-119 -170h-232zM389 440q0 -25 2.5 -42.5 t7.5 -30.5l562 784h-402q-84 0 -127 -43t-43 -127v-541zM561 270h402q84 0 127 43t43 127v541q-1 15 -3.5 34t-7.5 39z" />
<glyph unicode="&#xd9;" horiz-adv-x="1479" d="M94 418v1003h303v-981q0 -84 43.5 -127t128.5 -43h340q85 0 128.5 43t43.5 127v981h303v-1003q0 -209 -118.5 -328t-327.5 -119h-397q-209 0 -328 119t-119 328zM424 1809h270l201 -285h-158z" />
<glyph unicode="&#xda;" horiz-adv-x="1479" d="M94 418v1003h303v-981q0 -84 43.5 -127t128.5 -43h340q85 0 128.5 43t43.5 127v981h303v-1003q0 -209 -118.5 -328t-327.5 -119h-397q-209 0 -328 119t-119 328zM583 1524l201 285h270l-313 -285h-158z" />
<glyph unicode="&#xdb;" horiz-adv-x="1479" d="M94 418v1003h303v-981q0 -84 43.5 -127t128.5 -43h340q85 0 128.5 43t43.5 127v981h303v-1003q0 -209 -118.5 -328t-327.5 -119h-397q-209 0 -328 119t-119 328zM426 1524l202 285h222l202 -285h-157l-156 160l-156 -160h-157z" />
<glyph unicode="&#xdc;" horiz-adv-x="1479" d="M94 418v1003h303v-981q0 -84 43.5 -127t128.5 -43h340q85 0 128.5 43t43.5 127v981h303v-1003q0 -209 -118.5 -328t-327.5 -119h-397q-209 0 -328 119t-119 328zM458 1549v235h220v-235h-220zM800 1549v235h220v-235h-220z" />
<glyph unicode="&#xdd;" horiz-adv-x="1298" d="M-57 1421h338l278 -530q15 -30 39.5 -48t50.5 -18q27 0 52 18t40 48l279 530h336l-330 -628q-38 -75 -93.5 -128t-131.5 -87v-578h-303v578q-76 34 -132 87t-94 128zM493 1524l201 285h270l-313 -285h-158z" />
<glyph unicode="&#xde;" horiz-adv-x="1366" d="M94 0v1421h303v-260h486q206 0 308.5 -84.5t102.5 -253.5v-190q0 -169 -102.5 -253.5t-308.5 -84.5h-486v-295h-303zM397 592h445q73 0 111 28.5t38 84.5v47q0 55 -37.5 82.5t-111.5 27.5h-445v-270z" />
<glyph unicode="&#xdf;" horiz-adv-x="1413" d="M16 866v213h205v111q0 165 61 222.5t234 57.5h295q193 0 288 -76.5t95 -232.5q0 -77 -26.5 -131t-80.5 -86l-223 -133q-22 -13 -29 -19.5t-8 -13.5q0 -4 8 -9t33 -15l201 -84q126 -54 182 -130t56 -192q0 -162 -84.5 -255t-231.5 -93h-377v225h250q84 0 125 29.5t41 89.5 q0 50 -26.5 83.5t-88.5 59.5l-182 80q-95 43 -128.5 83t-33.5 106q0 67 24.5 107t127.5 104l129 82q6 3 16 9q62 37 62 99q0 60 -32.5 82.5t-166.5 22.5h-80q-74 0 -104.5 -22.5t-30.5 -74.5v-1165h-295v866h-205z" />
<glyph unicode="&#xe0;" horiz-adv-x="977" d="M-80 0l287 866q32 99 105 152t175 53q103 0 173.5 -51.5t107.5 -153.5l289 -866h-279l-237 760q-8 26 -21 38.5t-33 12.5q-19 0 -31 -12t-20 -39l-237 -760h-279zM174 1436h270l201 -285h-158z" />
<glyph unicode="&#xe1;" horiz-adv-x="977" d="M-80 0l287 866q32 99 105 152t175 53q103 0 173.5 -51.5t107.5 -153.5l289 -866h-279l-237 760q-8 26 -21 38.5t-33 12.5q-19 0 -31 -12t-20 -39l-237 -760h-279zM333 1151l201 285h270l-313 -285h-158z" />
<glyph unicode="&#xe2;" horiz-adv-x="977" d="M-80 0l287 866q32 99 105 152t175 53q103 0 173.5 -51.5t107.5 -153.5l289 -866h-279l-237 760q-8 26 -21 38.5t-33 12.5q-19 0 -31 -12t-20 -39l-237 -760h-279zM176 1151l202 285h222l202 -285h-157l-156 160l-156 -160h-157z" />
<glyph unicode="&#xe3;" horiz-adv-x="977" d="M-80 0l287 866q32 99 105 152t175 53q103 0 173.5 -51.5t107.5 -153.5l289 -866h-279l-237 760q-8 26 -21 38.5t-33 12.5q-19 0 -31 -12t-20 -39l-237 -760h-279zM180 1169q25 113 74.5 166.5t128.5 53.5q18 0 32.5 -2t28.5 -7l98 -32q12 -4 24.5 -5.5t26.5 -1.5 q32 0 54 20t32 58h119q-17 -104 -73.5 -165.5t-133.5 -61.5q-15 0 -28.5 2t-26.5 6l-108 35q-7 2 -14.5 3t-22.5 1q-39 0 -61 -16.5t-34 -53.5h-116z" />
<glyph unicode="&#xe4;" horiz-adv-x="977" d="M-80 0l287 866q32 99 105 152t175 53q103 0 173.5 -51.5t107.5 -153.5l289 -866h-279l-237 760q-8 26 -21 38.5t-33 12.5q-19 0 -31 -12t-20 -39l-237 -760h-279zM208 1176v235h220v-235h-220zM550 1176v235h220v-235h-220z" />
<glyph unicode="&#xe5;" horiz-adv-x="977" d="M-80 0l287 866q32 99 105 152t175 53q103 0 173.5 -51.5t107.5 -153.5l289 -866h-279l-237 760q-8 26 -21 38.5t-33 12.5q-19 0 -31 -12t-20 -39l-237 -760h-279zM272 1360q0 89 63 152t152 63q90 0 154 -63t64 -152q0 -90 -64 -153.5t-154 -63.5q-89 0 -152 63t-63 154z M403 1358q0 -36 24 -60t60 -24q37 0 61.5 24t24.5 60q0 38 -24 62t-62 24q-36 0 -60 -24.5t-24 -61.5z" />
<glyph unicode="&#xe6;" horiz-adv-x="1616" d="M-125 0l440 870q51 101 123 142t203 41h893v-256h-510q-57 0 -75.5 -17.5t-18.5 -70.5v-50h604v-251h-604v-64q0 -54 18 -71t76 -17h510v-256h-520q-190 0 -269 78t-79 264v381q0 38 -12.5 55t-39.5 17q-22 0 -40.5 -12t-28.5 -33l-375 -750h-295z" />
<glyph unicode="&#xe7;" horiz-adv-x="967" d="M80 356v340q0 169 93.5 263t262.5 94h469v-260h-426q-63 0 -98 -35.5t-35 -98.5v-266q0 -63 35 -98t98 -35h426v-260h-469q-169 0 -262.5 93.5t-93.5 262.5zM358 -413l16 111q45 -8 88 -12.5t86 -4.5q41 0 61.5 17t20.5 50q0 34 -26 48t-90 14q-8 0 -25.5 -1.5 t-28.5 -1.5l47 193h97l-27 -82q107 0 162 -44.5t55 -129.5q0 -91 -62.5 -135.5t-189.5 -44.5q-38 0 -84.5 5.5t-99.5 17.5z" />
<glyph unicode="&#xe8;" horiz-adv-x="1034" d="M80 342v369q0 182 81 262t267 80h520v-256h-508q-57 0 -75.5 -17.5t-18.5 -70.5v-50h602v-256h-602v-59q0 -54 18 -71t76 -17h508v-256h-520q-186 0 -267 79.5t-81 262.5zM203 1436h270l201 -285h-158z" />
<glyph unicode="&#xe9;" horiz-adv-x="1034" d="M80 342v369q0 182 81 262t267 80h520v-256h-508q-57 0 -75.5 -17.5t-18.5 -70.5v-50h602v-256h-602v-59q0 -54 18 -71t76 -17h508v-256h-520q-186 0 -267 79.5t-81 262.5zM362 1151l201 285h270l-313 -285h-158z" />
<glyph unicode="&#xea;" horiz-adv-x="1034" d="M80 342v369q0 182 81 262t267 80h520v-256h-508q-57 0 -75.5 -17.5t-18.5 -70.5v-50h602v-256h-602v-59q0 -54 18 -71t76 -17h508v-256h-520q-186 0 -267 79.5t-81 262.5zM205 1151l202 285h222l202 -285h-157l-156 160l-156 -160h-157z" />
<glyph unicode="&#xeb;" horiz-adv-x="1034" d="M80 342v369q0 182 81 262t267 80h520v-256h-508q-57 0 -75.5 -17.5t-18.5 -70.5v-50h602v-256h-602v-59q0 -54 18 -71t76 -17h508v-256h-520q-186 0 -267 79.5t-81 262.5zM237 1176v235h220v-235h-220zM579 1176v235h220v-235h-220z" />
<glyph unicode="&#xec;" horiz-adv-x="436" d="M-96 1436h270l201 -285h-158zM86 0v1053h264v-1053h-264z" />
<glyph unicode="&#xed;" horiz-adv-x="436" d="M63 1151l201 285h270l-313 -285h-158zM86 0v1053h264v-1053h-264z" />
<glyph unicode="&#xee;" horiz-adv-x="436" d="M-94 1151l202 285h222l202 -285h-157l-156 160l-156 -160h-157zM86 0v1053h264v-1053h-264z" />
<glyph unicode="&#xef;" horiz-adv-x="436" d="M-62 1176v235h220v-235h-220zM86 0v1053h264v-1053h-264zM280 1176v235h220v-235h-220z" />
<glyph unicode="&#xf0;" horiz-adv-x="1251" d="M51 510q0 225 143.5 375.5t354.5 150.5q47 0 96 -11t100 -34q-45 77 -88 126.5t-88 78.5l-366 -92l-33 125l274 69q-75 60 -225 172h307q50 -24 94 -51t80 -55l369 92l31 -125l-269 -67q178 -149 271.5 -336t93.5 -393q0 -259 -152.5 -406t-418.5 -147q-262 0 -418 144 t-156 384zM350 510q0 -138 72.5 -215.5t200.5 -77.5q129 0 201.5 77.5t72.5 215.5t-72.5 215.5t-201.5 77.5q-127 0 -200 -78t-73 -215z" />
<glyph unicode="&#xf1;" horiz-adv-x="1341" d="M86 0v774q0 134 90.5 215.5t239.5 81.5q136 0 219 -68t110 -202l95 -461q11 -52 31 -75t55 -23q30 0 47.5 24t17.5 66v721h264v-774q0 -134 -90 -215.5t-239 -81.5q-136 0 -219 68t-111 202l-94 458q-12 54 -32 77.5t-54 23.5q-30 0 -48 -24t-18 -66v-721h-264zM363 1169 q25 113 74.5 166.5t128.5 53.5q18 0 32.5 -2t28.5 -7l98 -32q12 -4 24.5 -5.5t26.5 -1.5q32 0 54 20t32 58h119q-17 -104 -73.5 -165.5t-133.5 -61.5q-15 0 -28.5 2t-26.5 6l-108 35q-7 2 -14.5 3t-22.5 1q-39 0 -61 -16.5t-34 -53.5h-116z" />
<glyph unicode="&#xf2;" horiz-adv-x="1190" d="M80 338v377q0 169 93.5 262.5t262.5 93.5h318q169 0 262.5 -93.5t93.5 -262.5v-377q0 -169 -93.5 -262.5t-262.5 -93.5h-318q-169 0 -262.5 93.5t-93.5 262.5zM281 1436h270l201 -285h-158zM346 375q0 -63 35 -98t98 -35h232q63 0 98 35t35 98v303q0 63 -35 98t-98 35 h-232q-63 0 -98 -35t-35 -98v-303z" />
<glyph unicode="&#xf3;" horiz-adv-x="1190" d="M80 338v377q0 169 93.5 262.5t262.5 93.5h318q169 0 262.5 -93.5t93.5 -262.5v-377q0 -169 -93.5 -262.5t-262.5 -93.5h-318q-169 0 -262.5 93.5t-93.5 262.5zM346 375q0 -63 35 -98t98 -35h232q63 0 98 35t35 98v303q0 63 -35 98t-98 35h-232q-63 0 -98 -35t-35 -98 v-303zM440 1151l201 285h270l-313 -285h-158z" />
<glyph unicode="&#xf4;" horiz-adv-x="1190" d="M80 338v377q0 169 93.5 262.5t262.5 93.5h318q169 0 262.5 -93.5t93.5 -262.5v-377q0 -169 -93.5 -262.5t-262.5 -93.5h-318q-169 0 -262.5 93.5t-93.5 262.5zM283 1151l202 285h222l202 -285h-157l-156 160l-156 -160h-157zM346 375q0 -63 35 -98t98 -35h232q63 0 98 35 t35 98v303q0 63 -35 98t-98 35h-232q-63 0 -98 -35t-35 -98v-303z" />
<glyph unicode="&#xf5;" horiz-adv-x="1190" d="M80 338v377q0 169 93.5 262.5t262.5 93.5h318q169 0 262.5 -93.5t93.5 -262.5v-377q0 -169 -93.5 -262.5t-262.5 -93.5h-318q-169 0 -262.5 93.5t-93.5 262.5zM287 1169q25 113 74.5 166.5t128.5 53.5q18 0 32.5 -2t28.5 -7l98 -32q12 -4 24.5 -5.5t26.5 -1.5q32 0 54 20 t32 58h119q-17 -104 -73.5 -165.5t-133.5 -61.5q-15 0 -28.5 2t-26.5 6l-108 35q-7 2 -14.5 3t-22.5 1q-39 0 -61 -16.5t-34 -53.5h-116zM346 375q0 -63 35 -98t98 -35h232q63 0 98 35t35 98v303q0 63 -35 98t-98 35h-232q-63 0 -98 -35t-35 -98v-303z" />
<glyph unicode="&#xf6;" horiz-adv-x="1190" d="M80 338v377q0 169 93.5 262.5t262.5 93.5h318q169 0 262.5 -93.5t93.5 -262.5v-377q0 -169 -93.5 -262.5t-262.5 -93.5h-318q-169 0 -262.5 93.5t-93.5 262.5zM315 1176v235h220v-235h-220zM346 375q0 -63 35 -98t98 -35h232q63 0 98 35t35 98v303q0 63 -35 98t-98 35 h-232q-63 0 -98 -35t-35 -98v-303zM657 1176v235h220v-235h-220z" />
<glyph unicode="&#xf7;" horiz-adv-x="1706" d="M254 512v199h1198v-199h-1198zM702 217q0 63 44.5 107.5t107.5 44.5q62 0 107 -45t45 -107q0 -61 -45 -105t-107 -44q-63 0 -107.5 43t-44.5 106zM702 1004q0 63 44.5 107t107.5 44q62 0 107 -44.5t45 -106.5q0 -63 -44.5 -107.5t-107.5 -44.5t-107.5 44.5t-44.5 107.5z " />
<glyph unicode="&#xf8;" horiz-adv-x="1190" d="M-2 -123l158 215q-38 49 -57 110.5t-19 135.5v377q0 169 93.5 262.5t262.5 93.5h318q24 0 52 -3t58 -9l70 98h233l-141 -190q42 -48 63 -111.5t21 -140.5v-377q0 -169 -93.5 -262.5t-262.5 -93.5h-318q-33 0 -62.5 3.5t-57.5 10.5l-85 -119h-233zM346 346l340 465h-207 q-63 0 -98 -35t-35 -98v-332zM494 242h217q63 0 98 35t35 98v346z" />
<glyph unicode="&#xf9;" horiz-adv-x="1176" d="M86 338v715h264v-678q0 -63 35 -98t98 -35h209q63 0 98 35t35 98v678h265v-715q0 -170 -93 -263t-262 -93h-293q-169 0 -262.5 93.5t-93.5 262.5zM273 1436h270l201 -285h-158z" />
<glyph unicode="&#xfa;" horiz-adv-x="1176" d="M86 338v715h264v-678q0 -63 35 -98t98 -35h209q63 0 98 35t35 98v678h265v-715q0 -170 -93 -263t-262 -93h-293q-169 0 -262.5 93.5t-93.5 262.5zM432 1151l201 285h270l-313 -285h-158z" />
<glyph unicode="&#xfb;" horiz-adv-x="1176" d="M86 338v715h264v-678q0 -63 35 -98t98 -35h209q63 0 98 35t35 98v678h265v-715q0 -170 -93 -263t-262 -93h-293q-169 0 -262.5 93.5t-93.5 262.5zM275 1151l202 285h222l202 -285h-157l-156 160l-156 -160h-157z" />
<glyph unicode="&#xfc;" horiz-adv-x="1176" d="M86 338v715h264v-678q0 -63 35 -98t98 -35h209q63 0 98 35t35 98v678h265v-715q0 -170 -93 -263t-262 -93h-293q-169 0 -262.5 93.5t-93.5 262.5zM307 1176v235h220v-235h-220zM649 1176v235h220v-235h-220z" />
<glyph unicode="&#xfd;" horiz-adv-x="995" d="M-55 1053h301l203 -381q10 -17 22.5 -26t26.5 -9t26.5 9t22.5 26l203 381h301l-260 -480q-32 -56 -71 -94.5t-89 -60.5v-418h-266v418q-52 23 -91.5 62t-68.5 93zM342 1151l201 285h270l-313 -285h-158z" />
<glyph unicode="&#xfe;" horiz-adv-x="1067" d="M86 0v1053h264v-176h332q159 0 241.5 -68t82.5 -199v-145q0 -131 -82.5 -198.5t-241.5 -67.5h-332v-199h-264zM350 455h307q47 0 64.5 13t17.5 48v43q0 35 -17.5 48.5t-64.5 13.5h-307v-166z" />
<glyph unicode="&#xff;" horiz-adv-x="995" d="M-55 1053h301l203 -381q10 -17 22.5 -26t26.5 -9t26.5 9t22.5 26l203 381h301l-260 -480q-32 -56 -71 -94.5t-89 -60.5v-418h-266v418q-52 23 -91.5 62t-68.5 93zM217 1176v235h220v-235h-220zM559 1176v235h220v-235h-220z" />
<glyph unicode="&#x152;" horiz-adv-x="2347" d="M86 446v531q0 209 118 326.5t326 117.5h461q89 0 155.5 -19t117.5 -59q49 42 120.5 60t194.5 18h682v-297h-659q-94 0 -130 -36t-36 -130v-90h825v-299h-825v-106q0 -93 35.5 -128.5t130.5 -35.5h659v-299h-682q-123 0 -194.5 18t-120.5 60q-51 -40 -117.5 -59 t-155.5 -19h-461q-208 0 -326 118.5t-118 327.5zM389 469q0 -84 43 -127t127 -43h404q84 0 127 43t43 127v483q0 85 -43.5 128.5t-126.5 43.5h-404q-84 0 -127 -43.5t-43 -128.5v-483z" />
<glyph unicode="&#x153;" horiz-adv-x="1796" d="M80 356v340q0 169 93.5 263t262.5 94h318q68 0 123.5 -14t101.5 -42q42 29 92.5 42.5t120.5 13.5h520v-260h-508q-59 0 -76.5 -16.5t-17.5 -67.5v-50h602v-251h-602v-64q0 -52 17 -68t77 -16h508v-260h-520q-72 0 -122.5 12.5t-90.5 40.5q-52 -26 -108.5 -39.5 t-116.5 -13.5h-318q-169 0 -262.5 93.5t-93.5 262.5zM346 393q0 -63 35 -98t98 -35h232q63 0 98 35t35 98v266q0 63 -35 98.5t-98 35.5h-232q-63 0 -98 -35.5t-35 -98.5v-266z" />
<glyph unicode="&#x178;" horiz-adv-x="1298" d="M-57 1421h338l278 -530q15 -30 39.5 -48t50.5 -18q27 0 52 18t40 48l279 530h336l-330 -628q-38 -75 -93.5 -128t-131.5 -87v-578h-303v578q-76 34 -132 87t-94 128zM368 1549v235h220v-235h-220zM710 1549v235h220v-235h-220z" />
<glyph unicode="&#x2c6;" d="M199 1151l202 285h222l202 -285h-157l-156 160l-156 -160h-157z" />
<glyph unicode="&#x2dc;" d="M203 1169q25 113 74.5 166.5t128.5 53.5q18 0 32.5 -2t28.5 -7l98 -32q12 -4 24.5 -5.5t26.5 -1.5q32 0 54 20t32 58h119q-17 -104 -73.5 -165.5t-133.5 -61.5q-15 0 -28.5 2t-26.5 6l-108 35q-7 2 -14.5 3t-22.5 1q-39 0 -61 -16.5t-34 -53.5h-116z" />
<glyph unicode="&#x2000;" horiz-adv-x="969" />
<glyph unicode="&#x2001;" horiz-adv-x="1939" />
<glyph unicode="&#x2002;" horiz-adv-x="969" />
<glyph unicode="&#x2003;" horiz-adv-x="1939" />
<glyph unicode="&#x2004;" horiz-adv-x="646" />
<glyph unicode="&#x2005;" horiz-adv-x="484" />
<glyph unicode="&#x2006;" horiz-adv-x="323" />
<glyph unicode="&#x2007;" horiz-adv-x="323" />
<glyph unicode="&#x2008;" horiz-adv-x="242" />
<glyph unicode="&#x2009;" horiz-adv-x="387" />
<glyph unicode="&#x200a;" horiz-adv-x="107" />
<glyph unicode="&#x2010;" horiz-adv-x="758" d="M104 383v262h549v-262h-549z" />
<glyph unicode="&#x2011;" horiz-adv-x="758" d="M104 383v262h549v-262h-549z" />
<glyph unicode="&#x2012;" horiz-adv-x="758" d="M104 383v262h549v-262h-549z" />
<glyph unicode="&#x2013;" d="M0 408v204h1024v-204h-1024z" />
<glyph unicode="&#x2014;" horiz-adv-x="2048" d="M0 408v204h2048v-204h-2048z" />
<glyph unicode="&#x2018;" horiz-adv-x="635" d="M143 903v148q0 165 85.5 269t242.5 130v-131q-75 -19 -117 -60.5t-53 -109.5h88q54 0 79.5 -24.5t25.5 -77.5v-144q0 -54 -25.5 -79t-79.5 -25h-143q-53 0 -78 25t-25 79z" />
<glyph unicode="&#x2019;" horiz-adv-x="635" d="M141 1176v143q0 53 25 77.5t80 24.5h143q54 0 78.5 -24t24.5 -78v-148q0 -165 -85.5 -270t-242.5 -131v133q75 19 118 60.5t54 107.5h-90q-54 0 -79.5 25.5t-25.5 79.5z" />
<glyph unicode="&#x201a;" horiz-adv-x="635" d="M143 104v142q0 54 25 79t78 25h143q54 0 79.5 -25t25.5 -79v-148q0 -164 -86 -268.5t-244 -130.5v133q75 19 118 60.5t54 107.5h-90q-53 0 -78 25t-25 79z" />
<glyph unicode="&#x201c;" horiz-adv-x="1110" d="M143 903v148q0 165 85.5 269t242.5 130v-131q-75 -19 -117 -60.5t-53 -109.5h88q54 0 79.5 -24.5t25.5 -77.5v-144q0 -54 -25.5 -79t-79.5 -25h-143q-53 0 -78 25t-25 79zM616 903v148q0 164 86 268.5t244 130.5v-131q-76 -19 -118.5 -61t-53.5 -109h88q55 0 80 -24.5 t25 -77.5v-144q0 -54 -25.5 -79t-79.5 -25h-141q-54 0 -79.5 25t-25.5 79z" />
<glyph unicode="&#x201d;" horiz-adv-x="1110" d="M143 1176v143q0 54 24.5 78t78.5 24h143q54 0 79.5 -24.5t25.5 -77.5v-148q0 -165 -86.5 -270t-243.5 -131v133q75 19 118 60.5t54 107.5h-90q-53 0 -78 25t-25 80zM616 1176v143q0 53 25.5 77.5t79.5 24.5h141q55 0 80 -24.5t25 -77.5v-148q0 -165 -86.5 -270 t-243.5 -131v133q76 19 118.5 60.5t53.5 107.5h-88q-54 0 -79.5 25.5t-25.5 79.5z" />
<glyph unicode="&#x201e;" horiz-adv-x="1110" d="M143 104v142q0 54 25 79t78 25h143q54 0 79.5 -25t25.5 -79v-148q0 -164 -86 -268.5t-244 -130.5v133q75 19 118 60.5t54 107.5h-90q-53 0 -78 25t-25 79zM616 104v142q0 54 25.5 79t79.5 25h141q54 0 79.5 -25t25.5 -79v-148q0 -164 -86 -268.5t-244 -130.5v133 q76 19 118.5 60.5t53.5 107.5h-88q-54 0 -79.5 25.5t-25.5 78.5z" />
<glyph unicode="&#x2022;" horiz-adv-x="1208" d="M307 762q0 123 87 209t210 86q122 0 208.5 -86.5t86.5 -208.5t-87.5 -209.5t-209.5 -87.5q-123 0 -209 87t-86 210z" />
<glyph unicode="&#x2026;" horiz-adv-x="2048" d="M152 115v151q0 57 28 85t84 28h152q57 0 86 -28t29 -85v-151q0 -57 -29 -86t-86 -29h-152q-56 0 -84 28.5t-28 86.5zM834 115v151q0 57 28 85t84 28h152q57 0 86 -28t29 -85v-151q0 -57 -29 -86t-86 -29h-152q-56 0 -84 28.5t-28 86.5zM1518 115v151q0 57 28 85t84 28 h152q57 0 86 -28t29 -85v-151q0 -57 -29 -86t-86 -29h-152q-56 0 -84 28.5t-28 86.5z" />
<glyph unicode="&#x202f;" horiz-adv-x="387" />
<glyph unicode="&#x2039;" horiz-adv-x="758" d="M141 526q0 22 14 57.5t40 75.5l192 308h262l-192 -308q-26 -40 -40 -75.5t-14 -57.5t14 -57t40 -76l192 -307h-262l-192 307q-26 41 -40 76t-14 57z" />
<glyph unicode="&#x203a;" horiz-adv-x="758" d="M109 86l192 307q25 41 39 76t14 57t-14 57.5t-39 75.5l-192 308h262l192 -308q26 -40 39.5 -75.5t13.5 -57.5t-13.5 -57t-39.5 -76l-192 -307h-262z" />
<glyph unicode="&#x205f;" horiz-adv-x="484" />
<glyph unicode="&#x20ac;" horiz-adv-x="1503" d="M39 446l65 191h166v147h-231l67 191h164v10q0 200 120.5 318t326.5 118h624v-297h-598q-77 0 -119.5 -37t-50.5 -112h535l-70 -191h-465v-147h402l-68 -191h-334q8 -74 50.5 -110.5t119.5 -36.5h598v-299h-624q-206 0 -326.5 118t-120.5 318v10h-231z" />
<glyph unicode="&#x2122;" horiz-adv-x="1706" d="M207 1350v112h485v-112h-168v-435h-149v435h-168zM803 915v547h196l127 -332l123 332h197v-547h-135v410l-154 -410h-61l-158 410v-410h-135z" />
<glyph unicode="&#x25fc;" horiz-adv-x="1055" d="M0 0v1055h1055v-1055h-1055z" />
<glyph unicode="&#xfb01;" horiz-adv-x="1323" d="M16 864v215h205v111q0 165 61 222.5t234 57.5h270v-208h-135q-73 0 -104 -22.5t-31 -74.5v-86h270v-215h-270v-864h-295v864h-205zM891 0v1079h299v-1079h-299zM891 1202v268h299v-268h-299z" />
<glyph unicode="&#xfb02;" horiz-adv-x="1319" d="M16 864v215h205v111q0 165 61 222.5t234 57.5h270v-208h-135q-73 0 -104 -22.5t-31 -74.5v-86h270v-215h-270v-864h-295v864h-205zM889 0v1470h299v-1470h-299z" />
</font>
</defs>
</svg>
